<?xml version="1.0" encoding="UTF-8"?>
<svg version="1.1" xmlns="http://www.w3.org/2000/svg" width="166" height="167">
<path d="M0 0 C54.78 0 109.56 0 166 0 C166 24.75 166 49.5 166 75 C125.74 75 85.48 75 44 75 C44 69.06 44 63.12 44 57 C78.32 57 112.64 57 148 57 C148 44.13 148 31.26 148 18 C104.77 18 61.54 18 17 18 C17 61.23 17 104.46 17 149 C60.23 149 103.46 149 148 149 C148 136.13 148 123.26 148 110 C113.68 110 79.36 110 44 110 C44 104.39 44 98.78 44 93 C84.26 93 124.52 93 166 93 C166 117.42 166 141.84 166 167 C111.22 167 56.44 167 0 167 C0 111.89 0 56.78 0 0 Z " fill="#1F1D1D" transform="translate(0,0)"/>
</svg>
